<?xml version="1.0" standalone="no"?><!DOCTYPE svg PUBLIC "-//W3C//DTD SVG 1.1//EN" "http://www.w3.org/Graphics/SVG/1.1/DTD/svg11.dtd"><svg t="1540757427009" class="icon" style="" viewBox="0 0 1610 1024" version="1.1" xmlns="http://www.w3.org/2000/svg" p-id="10932" xmlns:xlink="http://www.w3.org/1999/xlink" width="314.453125" height="200"><defs><style type="text/css"></style></defs><path d="M1092.613828 471.440728a22.991426 22.991426 0 0 1 22.588775 23.192752v43.446146a22.991426 22.991426 0 0 1-22.588775 23.192752H509.412743a22.991426 22.991426 0 0 1-22.588774-23.192752v-43.486411a22.991426 22.991426 0 0 1 22.588774-23.192752h583.201085m0-45.942588H509.412743a68.450832 68.450832 0 0 0-66.357042 69.256136v43.446145a68.652158 68.652158 0 0 0 66.357042 69.296401h583.201085a68.652158 68.652158 0 0 0 66.357042-69.296401v-43.446145a68.450832 68.450832 0 0 0-66.357042-69.417196z m0 0" fill="#0E8ECE" p-id="10933"></path><path d="M528.780302 504.78031h22.548509v23.192752h-22.548509z m31.527648 0h22.548509v23.192752h-22.508244z m31.205526 0h22.588774v23.192752h-22.588774z m31.487382 0h22.588775v23.192752h-22.588775z m441.266273 23.192752h-43.647471a11.596376 11.596376 0 0 1 0-23.192752h43.48641a11.596376 11.596376 0 1 1 0 23.192752z m28.507758 151.477664a22.951161 22.951161 0 0 1 22.588775 23.152487v43.365615a22.991426 22.991426 0 0 1-22.588775 23.192752H509.412743a22.991426 22.991426 0 0 1-22.588774-23.152487v-43.607206a22.951161 22.951161 0 0 1 22.588774-23.152487h583.201085m0-46.063383H509.412743a68.450832 68.450832 0 0 0-66.357042 69.2964v43.446146a68.450832 68.450832 0 0 0 66.357042 69.296401h583.201085a68.450832 68.450832 0 0 0 66.357042-69.296401v-43.446146a68.450832 68.450832 0 0 0-66.357042-69.2964z m0 0" fill="#0E8ECE" p-id="10934"></path><path d="M539.893496 735.902529a11.274255 11.274255 0 1 1 8.053039-3.422541 11.233989 11.233989 0 0 1-8.053039 3.422541z m31.527647 0a11.274255 11.274255 0 1 1 8.053039-3.422541 11.274255 11.274255 0 0 1-8.053039 3.422541z m31.165261 0a11.274255 11.274255 0 1 1 8.053039-3.422541 11.274255 11.274255 0 0 1-8.053039 3.422541z m31.487383 0a11.274255 11.274255 0 1 1 8.053039-3.422541 11.233989 11.233989 0 0 1-8.053039 3.422541z m429.951753 0h-43.40588a11.596376 11.596376 0 0 1 0-23.192752h43.48641a11.596376 11.596376 0 1 1 0 23.192752z m28.507758 151.477664a23.031692 23.031692 0 0 1 22.588774 23.192752v43.446146a22.991426 22.991426 0 0 1-22.588774 23.152487H509.412743a22.991426 22.991426 0 0 1-22.588774-23.192752v-44.291715a22.991426 22.991426 0 0 1 22.588774-23.192752h583.201085m0-45.942588H509.412743a68.450832 68.450832 0 0 0-66.357042 69.296401v43.446145a68.450832 68.450832 0 0 0 66.357042 69.296401h583.201085a68.450832 68.450832 0 0 0 66.357042-69.296401v-43.48641a68.450832 68.450832 0 0 0-66.357042-69.376931z m0 0" fill="#0E8ECE" p-id="10935"></path><path d="M528.780302 920.317123h22.548509v23.192752h-22.548509z m31.527648 0h22.548509v23.192752h-22.508244z m31.205526 0h22.588774v23.192752h-22.588774z m31.487382 0h22.588775v23.192752h-22.588775z m441.266273 22.226387h-43.647471a11.596376 11.596376 0 0 1 0-23.192752h43.48641a11.596376 11.596376 0 1 1 0 23.192752z m0 0" fill="#0E8ECE" p-id="10936"></path><path d="M1305.656975 430.652085v-12.965392a410.141277 410.141277 0 0 0-782.312475-179.703566 206.761777 206.761777 0 0 0-95.186921-22.991426 213.405534 213.405534 0 0 0-209.097158 179.220383A323.732168 323.732168 0 0 0 310.301353 1024v-55.042522a269.776807 269.776807 0 0 1-72.477351-523.447536l29.83651-10.307889 5.27474-33.138256a159.168316 159.168316 0 0 1 157.034261-134.203895 157.034261 157.034261 0 0 1 71.22913 17.233503l48.318234 24.521504 23.394079-49.808046a357.031485 357.031485 0 0 1 680.924713 156.390017v66.558368h51.740776a242.557535 242.557535 0 0 1 0 484.712418h-15.864487v53.874831h16.106078a296.392101 296.392101 0 1 0 0-592.54261z m0 0" fill="#0E8ECE" p-id="10937"></path></svg>