<?xml version="1.0" standalone="no"?><!DOCTYPE svg PUBLIC "-//W3C//DTD SVG 1.1//EN" "http://www.w3.org/Graphics/SVG/1.1/DTD/svg11.dtd"><svg t="1540755750927" class="icon" style="" viewBox="0 0 1024 1024" version="1.1" xmlns="http://www.w3.org/2000/svg" p-id="2814" xmlns:xlink="http://www.w3.org/1999/xlink" width="200" height="200"><defs><style type="text/css"></style></defs><path d="M1004.174 511.885c0 101.802-31.952 202.278-91.036 285.207-57.562 80.798-139.428 143.36-232.671 177.312-96.486 35.134-203.61 38.994-302.422 11.08-95.774-27.054-182.147-83.704-245.51-160.404-64.293-77.825-103.48-174.85-111.099-275.527C13.72 447.62 38.028 344.477 91.066 257.04c51.196-84.403 127.79-152.537 217.673-193.381 93.982-42.706 200.898-54.54 302.028-33.956 97.61 19.87 187.943 70 256.807 141.926 69.09 72.162 115.242 164.933 130.674 263.673a495.893 495.893 0 0 1 5.926 76.582z" fill="#FDDF6D" p-id="2815"></path><path d="M787.224 905.006c-96.485 35.134-203.61 38.994-302.42 11.08-95.775-27.054-182.149-83.704-245.51-160.401-64.296-77.83-103.482-174.852-111.102-275.53-7.718-101.932 16.59-205.076 69.628-292.511 27.444-45.242 62.19-85.802 102.361-119.996-86.187 41.214-159.56 107.678-209.125 189.391-53.038 87.436-77.346 190.58-69.63 292.512 7.62 100.678 46.806 197.7 111.102 275.531 63.362 76.698 149.735 133.348 245.51 160.402 98.807 27.914 205.93 24.052 302.42-11.08 54.973-20.016 105.98-49.984 150.392-87.762a484.231 484.231 0 0 1-43.626 18.364z" fill="#FCC56B" p-id="2816"></path><path d="M537.84 458.417c0 24.936-15.993 47.83-39.409 56.404-23.684 8.67-50.946 1.234-66.988-18.204-15.836-19.188-18.094-47.036-5.514-68.512 12.882-21.992 38.982-33.636 63.96-28.526 27.584 5.648 47.952 30.7 47.952 58.838z m338.112 0c0 24.936-15.994 47.83-39.41 56.404-23.684 8.67-50.946 1.234-66.988-18.204-15.833-19.188-18.093-47.036-5.513-68.512 12.881-21.992 38.981-33.636 63.96-28.526 27.585 5.648 47.951 30.7 47.951 58.838z" fill="#FFFFFF" p-id="2817"></path><path d="M312.863 534.131c-36.06 0-66.167 30.108-66.167 66.168h132.337c-0.002-36.06-30.11-66.168-66.17-66.168z m577.163-8.868c-36.06 0-66.168 30.11-66.168 66.17h132.338c0-36.062-30.108-66.17-66.17-66.17z" fill="#F9A880" p-id="2818"></path><path d="M164.05 164.146c-27.888 27.884-52.484 59.082-72.996 92.893-25.26 41.646-43.99 86.856-55.86 133.798l899.14-131.54c-18.868-31.541-41.248-61.015-66.772-87.67-35.46-37.037-76.626-68.275-121.533-92.6l-581.98 85.119z" fill="#F2F2F2" p-id="2819"></path><path d="M814.446 276.84l91.204-60.224a488.825 488.825 0 0 0-38.086-44.988c-35.46-37.036-76.626-68.276-121.533-92.6l-476.132 69.636L94.896 250.92c-1.278 2.042-2.592 4.06-3.84 6.12-25.26 41.645-43.99 86.855-55.86 133.797l779.25-113.998z" fill="#E6E6E6" p-id="2820"></path><path d="M867.576 171.63C818.258 120.118 757.925 79.792 691.8 53.748L42.784 364.07c-18.708 59.666-26.094 122.8-21.348 185.482a485.645 485.645 0 0 0 6.448 50.054l855.872-410.185a484.183 484.183 0 0 0-16.18-17.792z" fill="#FFFFFF" p-id="2821"></path><path d="M789.588 777.976c-9.814 0-15.756-7.882-23.271-12.94-7.962-5.355-16.7-9.54-25.622-13.035-22.298-8.734-46.242-13.384-70.06-15.284-24.81-1.98-50.052-0.756-74.426 4.394-10.564 2.232-21.016 5.216-30.986 9.39-8.418 3.526-16.712 11.036-25.56 12.87-21.322 4.414-32.1-23.548-15.43-36.084 16.062-12.084 36.922-19.026 56.202-23.758 47.31-11.616 98.788-10.222 145.868 1.836 22.404 5.738 44.665 14.206 63.783 27.426 7.992 5.526 18 12.152 19.356 22.57 1.534 11.78-7.938 22.615-19.854 22.615z" fill="#7F184C" p-id="2822"></path><path d="M951.462 249.088c-4.524-10.6-12.61-20.588-19.192-29.998a517.901 517.901 0 0 0-21.276-28.304 514.341 514.341 0 0 0-45.004-48.982c-33.578-32.07-72.64-62.424-114.627-82.728-18.062-9.576-38.012-20.798-57.868-26.08C548.75-22.01 382.97-7.422 250.125 72.022a515.877 515.877 0 0 0-95.007 73.074c-8.074 5.746-14.916 14.632-21.566 21.938a514.435 514.435 0 0 0-20.326 23.718 511.791 511.791 0 0 0-89.416 166.63c-9.678 24.675-14.368 52.787-18.232 78.857A516.917 516.917 0 0 0 0 511.875c0.038 123.328 45.48 244.012 126.672 336.813 78.374 89.582 187.273 150.304 304.903 168.962 118.462 18.79 241.75-5.05 344.441-67.056 98.684-59.586 175.908-152.362 216.168-260.42 47.234-126.773 41.674-270.485-15.326-393.223a514.855 514.855 0 0 0-25.396-47.863c-0.372-0.864 46.152 76.877 0 0z m-433.639 209.33c0 21.793-18.244 40.037-40.038 40.037s-40.038-18.244-40.038-40.038 18.244-40.038 40.038-40.038 40.038 18.244 40.038 40.038zM43.63 570.144c-7.906-63.966-2.672-129.482 15.526-191.322L689.04 74.26c60.314 24.476 114.455 61.064 159.397 106.744L645.517 279.12a19.926 19.926 0 0 0-4.72 2.282L43.63 570.145z m421.793-432.231l-386.745 187c23.492-54.245 56.866-103.246 97.858-144.712l288.887-42.288z m410.955 74.052a475.063 475.063 0 0 1 22.586 29.732L778.38 259.349l97.998-47.383zM634.787 56.022l-49.344 23.86-352.55 51.604c86.862-63.926 194.492-96.334 302.21-91.114a471.32 471.32 0 0 1 99.684 15.65zM512.095 983.936c-226.212 0-415.74-159.95-461.501-372.685l348.685-168.598c-9.54 47.586 26.88 93.89 75.372 95.772 47.388 1.838 86.9-39.492 82.93-86.756-2.292-27.316-19.052-52.072-43.43-64.556l144.21-69.728 264.075-38.654c70.174 123.024 80.89 274.98 28.714 406.592-43.968 110.91-130.388 202.845-238.271 253.757-62.616 29.546-131.554 44.856-200.784 44.856z" fill="" p-id="2823"></path><path d="M815.896 378.343c-33.436 0-64.101 21.636-75.391 53.1-11.43 31.846-1.004 68.282 25.34 89.434 26.111 20.966 63.637 23.304 92.117 5.65 28.344-17.568 43.142-51.798 36.33-84.478-7.64-36.622-40.994-63.706-78.396-63.706z m0 120.112c-21.794 0-40.038-18.244-40.038-40.038s18.244-40.038 40.038-40.038 40.038 18.244 40.038 40.038-18.244 40.038-40.038 40.038zM666.073 696.281c-45.016-2.53-94.726 2.936-134.276 26.2-8.132 4.784-15.786 10.218-16.174 20.536-0.36 9.488 6.212 18.038 15.436 20.222 9.892 2.338 16.724-4.074 24.86-8.366 9.358-4.938 19.436-8.49 29.644-11.222 46.47-12.444 98.582-10.34 144.268 4.478 9.722 3.152 19.28 6.99 28.244 11.916 7.794 4.282 13.88 10.777 21.397 15.19 21.012 12.333 39.792-16.434 23.128-32.512-15.514-14.966-36.64-24.63-56.767-31.538-25.654-8.802-52.728-13.394-79.76-14.904-56.136-3.158 57.832 3.232 0 0z" fill="" p-id="2824"></path></svg>